#!OML:ASF E:\emotionWalksFemale\Project 1\Capture day 1\Session 1\Female1.ASF
:FULLY-SPECIFIED
:DEGREES
1341
root 5.58745 15.2884 -2.13952 -3.19298 -46.5013 -353.82
lowerback 5.98371 -1.29949 -6.94348
upperback -4.61862 -2.48502 -0.546195
thorax -7.99459 -0.853607 3.63049
lowerneck -14.1748 0.0827698 -5.14857
upperneck 16.2796 -0.467758 8.83081
head 7.35576 0.251248 3.70716
rclavicle -8.47048e-014 -8.76206e-015
rhumerus -70.1205 9.79557 -77.9222
rradius 31.5846
rwrist 16.9214
rhand 3.58265 -57.2687
rfingers 7.12502
rthumb 29.0172 -445.029
lclavicle -8.47048e-014 -8.76206e-015
lhumerus 4.59 -17.8086 65.9793
lradius 40.9889
lwrist -14.6091
lhand -9.19426 -31.7042
lfingers 7.12502
lthumb 16.7594 -2.40759
rfemur -34.6447 36.3683 -3.02532
rtibia 22.0247
rfoot -60.4871 -43.7971
rtoes 47.7677
lfemur 17.784 -18.4615 -35.4281
ltibia 5.35173
lfoot -16.1519 9.7702
ltoes -26.3761
1342
root 5.39211 15.2504 -2.04163 -3.44833 -46.0843 -353.526
lowerback 6.05462 -1.34308 -7.36925
upperback -4.70107 -2.60547 -0.652202
thorax -8.10512 -0.88611 3.77445
lowerneck -14.0899 0.266334 -4.67585
upperneck 16.3255 -0.201993 8.18792
head 7.33594 0.348629 3.44036
rclavicle 5.47869e-014 2.45748e-014
rhumerus -70.5147 9.66952 -77.5012
rradius 31.5972
rwrist 17.2289
rhand 3.56157 -56.9359
rfingers 7.12502
rthumb 28.997 -444.7
lclavicle 5.47869e-014 2.45748e-014
lhumerus 4.87831 -18.5582 65.3802
lradius 40.8473
lwrist -15.1001
lhand -8.71455 -32.0507
lfingers 7.12502
lthumb 17.2212 -2.79377
rfemur -36.611 41.3084 -6.99897
rtibia 21.2137
rfoot -66.1447 -44.6461
rtoes 49.1607
lfemur 19.09 -18.0078 -35.518
ltibia 4.55851
lfoot -15.3487 9.55229
ltoes -30.951
1343
root 5.19519 15.2144 -1.93797 -3.54753 -45.7154 -353.349
lowerback 5.85167 -1.41523 -7.7336
upperback -4.7201 -2.72459 -0.702985
thorax -7.98426 -0.930688 3.93019
lowerneck -13.8846 0.415323 -4.35755
upperneck 16.0973 0.030841 7.7171
head 7.21056 0.432758 3.2469
rclavicle -1.12562e-014 9.29318e-015
rhumerus -70.8577 9.81952 -77.4653
rradius 32.3656
rwrist 16.0301
rhand 4.08886 -57.6703
rfingers 7.12502
rthumb 29.5005 -445.347
lclavicle -1.12562e-014 9.29318e-015
lhumerus 4.96366 -18.945 64.9538
lradius 40.8345
lwrist -15.7785
lhand -8.25529 -32.3348
lfingers 7.12502
lthumb 17.6632 -3.11707
rfemur -38.6894 45.1677 -10.5826
rtibia 20.4463
rfoot -70.6804 -45.7994
rtoes 49.7789
lfemur 20.0968 -17.5386 -35.4723
ltibia 4.20732
lfoot -14.8068 9.03771
ltoes -32.2618
1344
root 4.99872 15.1781 -1.83544 -3.41562 -45.3899 -353.436
lowerback 5.71005 -1.50022 -7.93449
upperback -4.78473 -2.84636 -0.674067
thorax -7.9489 -0.978421 4.08232
lowerneck -13.4444 0.552935 -4.38982
upperneck 15.6154 0.275032 7.54174
head 6.96135 0.522752 3.2031
rclavicle 1.66358e-014 1.78906e-015
rhumerus -71.1301 10.0048 -77.3484
rradius 32.9693
rwrist 15.2524
rhand 4.24048 -57.9632
rfingers 7.12502
rthumb 29.6453 -445.614
lclavicle 1.66358e-014 1.78906e-015
lhumerus 4.81419 -19.0574 64.7316
lradius 40.8664
lwrist -15.902
lhand -7.99491 -32.2023
lfingers 7.12502
lthumb 17.9137 -3.0073
rfemur -40.3976 47.4505 -13.0594
rtibia 19.6425
rfoot -72.1755 -48.2804
rtoes 48.4306
lfemur 20.9223 -17.0701 -35.1549
ltibia 4.08563
lfoot -14.4997 8.01191
ltoes -29.9886
1345
root 4.80579 15.1722 -1.73301 -3.18618 -45.0034 -353.67
lowerback 5.67621 -1.55949 -7.86076
upperback -4.89791 -2.92475 -0.691225
thorax -8.04597 -1.01502 4.03281
lowerneck -13.129 0.694326 -4.38652
upperneck 15.3675 0.503708 7.37249
head 6.81196 0.612139 3.15968
rclavicle -5.33426e-014 2.28602e-015
rhumerus -71.438 9.93108 -77.1346
rradius 33.4734
rwrist 14.7537
rhand 4.04911 -58.0556
rfingers 7.12502
rthumb 29.4626 -445.739
lclavicle -5.33426e-014 2.28602e-015
lhumerus 4.57799 -19.5332 64.5048
lradius 40.9573
lwrist -15.4998
lhand -7.89257 -31.7198
lfingers 7.12502
lthumb 18.0122 -2.53385
rfemur -38.5049 45.0563 -10.8676
rtibia 18.8191
rfoot -66.2075 -48.2557
rtoes 46.6811
lfemur 21.3456 -16.6822 -34.6873
ltibia 4.60362
lfoot -14.2598 6.9772
ltoes -27.2877
1346
root 4.60949 15.1641 -1.62891 -2.94682 -44.6827 -353.937
lowerback 5.6339 -1.60203 -7.78124
upperback -5.0119 -2.97729 -0.681677
thorax -8.14131 -1.03854 4.00526
lowerneck -13.283 0.905064 -4.04664
upperneck 15.6338 0.812765 6.82422
head 6.90993 0.73745 2.95999
rclavicle -4.09372e-014 1.74931e-014
rhumerus -71.7556 9.92422 -76.9888
rradius 34.06
rwrist 14.1274
rhand 3.97165 -58.1266
rfingers 7.12502
rthumb 29.3886 -445.823
lclavicle -4.09372e-014 1.74931e-014
lhumerus 4.08214 -19.7715 64.5036
lradius 41.1631
lwrist -15.4144
lhand -7.57372 -31.4609
lfingers 7.12502
lthumb 18.319 -2.30346
rfemur -36.1177 41.4394 -7.70663
rtibia 18.1103
rfoot -57.9815 -48.0082
rtoes 43.8166
lfemur 21.639 -16.2304 -34.1855
ltibia 5.42975
lfoot -13.826 6.16021
ltoes -27.2337
1347
root 4.40776 15.1563 -1.52218 -2.92979 -44.4705 -354.044
lowerback 5.6293 -1.65123 -7.96624
upperback -5.05477 -3.05908 -0.628331
thorax -8.16603 -1.06376 4.1751
lowerneck -13.4456 1.15495 -3.49123
upperneck 15.7905 1.19932 5.93303
head 6.97763 0.881584 2.6185
rclavicle -7.42833e-014 -1.18277e-014
rhumerus -71.8267 10.1232 -76.8954
rradius 34.5528
rwrist 13.4296
rhand 3.93236 -58.34
rfingers 7.12502
rthumb 29.3511 -446.043
lclavicle -7.42833e-014 -1.18277e-014
lhumerus 3.308 -19.5555 64.6492
lradius 41.4366
lwrist -15.5164
lhand -7.43892 -31.2586
lfingers 7.12502
lthumb 18.4486 -2.11341
rfemur -33.6239 37.0544 -4.16587
rtibia 17.7243
rfoot -48.8027 -46.9451
rtoes 39.9655
lfemur 21.9913 -15.653 -33.776
ltibia 6.34143
lfoot -13.3075 5.04926
ltoes -26.2075
